<mxfile host="app.diagrams.net" agent="Mozilla/5.0 (X11; Linux x86_64) AppleWebKit/537.36 (KHTML, like Gecko) Chrome/102.0.0.0 Safari/537.36" version="24.7.7">
  <diagram name="Página-1" id="ZGQ_rpVMih1KiVkoQtHr">
    <mxGraphModel dx="1362" dy="807" grid="1" gridSize="10" guides="1" tooltips="1" connect="1" arrows="1" fold="1" page="1" pageScale="1" pageWidth="827" pageHeight="1169" math="0" shadow="0">
      <root>
        <mxCell id="0" />
        <mxCell id="1" parent="0" />
        <mxCell id="NgShOfkUOKKtUbSQ_IBs-1" value="Início do Projeto" style="ellipse;whiteSpace=wrap;html=1;" parent="1" vertex="1">
          <mxGeometry x="20" y="305" width="100" height="70" as="geometry" />
        </mxCell>
        <mxCell id="NgShOfkUOKKtUbSQ_IBs-2" value="Atividade1: &lt;b&gt;Levantamento dos dados que faram parte do projeto&lt;/b&gt;&lt;div&gt;Duração: 30 dias&lt;/div&gt;" style="rounded=0;whiteSpace=wrap;html=1;" parent="1" vertex="1">
          <mxGeometry x="160" y="302.5" width="120" height="75" as="geometry" />
        </mxCell>
        <mxCell id="NgShOfkUOKKtUbSQ_IBs-3" value="Atividade3:&amp;nbsp;&lt;div&gt;&lt;strong&gt;Desenvolvimento do Site&lt;/strong&gt;&lt;div&gt;Duração:7 dias&lt;/div&gt;&lt;/div&gt;&lt;div&gt;&lt;br&gt;&lt;/div&gt;" style="rounded=0;whiteSpace=wrap;html=1;" parent="1" vertex="1">
          <mxGeometry x="470" y="200" width="120" height="80" as="geometry" />
        </mxCell>
        <mxCell id="NgShOfkUOKKtUbSQ_IBs-4" value="Fim do Projeto" style="ellipse;whiteSpace=wrap;html=1;" parent="1" vertex="1">
          <mxGeometry x="1050" y="290" width="120" height="80" as="geometry" />
        </mxCell>
        <mxCell id="NgShOfkUOKKtUbSQ_IBs-5" value="" style="endArrow=classic;html=1;rounded=0;entryX=0;entryY=0.5;entryDx=0;entryDy=0;exitX=1;exitY=0.5;exitDx=0;exitDy=0;" parent="1" source="NgShOfkUOKKtUbSQ_IBs-1" target="NgShOfkUOKKtUbSQ_IBs-2" edge="1">
          <mxGeometry width="50" height="50" relative="1" as="geometry">
            <mxPoint x="130" y="348" as="sourcePoint" />
            <mxPoint x="170" y="295" as="targetPoint" />
          </mxGeometry>
        </mxCell>
        <mxCell id="NgShOfkUOKKtUbSQ_IBs-6" value="Atividade4:&amp;nbsp;&lt;strong&gt;Criação do Conteúdo da Palestra explicativa&amp;nbsp;&lt;/strong&gt;&lt;div&gt;&lt;br&gt;&lt;/div&gt;" style="rounded=0;whiteSpace=wrap;html=1;" parent="1" vertex="1">
          <mxGeometry x="370" y="410" width="120" height="80" as="geometry" />
        </mxCell>
        <mxCell id="NgShOfkUOKKtUbSQ_IBs-7" value="Duração:20 dias" style="text;html=1;align=center;verticalAlign=middle;resizable=0;points=[];autosize=1;strokeColor=none;fillColor=none;" parent="1" vertex="1">
          <mxGeometry x="370" y="460" width="110" height="30" as="geometry" />
        </mxCell>
        <mxCell id="NgShOfkUOKKtUbSQ_IBs-8" value="Atividade2:&lt;div&gt;&lt;b&gt;Levantamento dos dados que faram parte do site&lt;/b&gt;&lt;/div&gt;&lt;div&gt;Duração:7 dias&lt;/div&gt;" style="rounded=0;whiteSpace=wrap;html=1;" parent="1" vertex="1">
          <mxGeometry x="280" y="200" width="120" height="80" as="geometry" />
        </mxCell>
        <mxCell id="NgShOfkUOKKtUbSQ_IBs-9" style="edgeStyle=orthogonalEdgeStyle;rounded=0;orthogonalLoop=1;jettySize=auto;html=1;exitX=0.5;exitY=1;exitDx=0;exitDy=0;" parent="1" source="NgShOfkUOKKtUbSQ_IBs-3" edge="1">
          <mxGeometry relative="1" as="geometry">
            <mxPoint x="500" y="270" as="targetPoint" />
          </mxGeometry>
        </mxCell>
        <mxCell id="NgShOfkUOKKtUbSQ_IBs-10" value="" style="endArrow=classic;html=1;rounded=0;exitX=0.5;exitY=0;exitDx=0;exitDy=0;" parent="1" source="NgShOfkUOKKtUbSQ_IBs-2" edge="1">
          <mxGeometry width="50" height="50" relative="1" as="geometry">
            <mxPoint x="140" y="300" as="sourcePoint" />
            <mxPoint x="280" y="220" as="targetPoint" />
            <Array as="points">
              <mxPoint x="220" y="310" />
              <mxPoint x="220" y="220" />
            </Array>
          </mxGeometry>
        </mxCell>
        <mxCell id="NgShOfkUOKKtUbSQ_IBs-11" value="" style="endArrow=classic;html=1;rounded=0;exitX=0.25;exitY=1;exitDx=0;exitDy=0;entryX=0;entryY=0.5;entryDx=0;entryDy=0;" parent="1" source="NgShOfkUOKKtUbSQ_IBs-2" target="NgShOfkUOKKtUbSQ_IBs-6" edge="1">
          <mxGeometry width="50" height="50" relative="1" as="geometry">
            <mxPoint x="300" y="480" as="sourcePoint" />
            <mxPoint x="300" y="430" as="targetPoint" />
            <Array as="points">
              <mxPoint x="190" y="450" />
            </Array>
          </mxGeometry>
        </mxCell>
        <mxCell id="NgShOfkUOKKtUbSQ_IBs-12" value="" style="endArrow=classic;html=1;rounded=0;entryX=0;entryY=0.5;entryDx=0;entryDy=0;exitX=1;exitY=0.5;exitDx=0;exitDy=0;" parent="1" source="NgShOfkUOKKtUbSQ_IBs-8" target="NgShOfkUOKKtUbSQ_IBs-3" edge="1">
          <mxGeometry width="50" height="50" relative="1" as="geometry">
            <mxPoint x="400" y="260" as="sourcePoint" />
            <mxPoint x="450" y="210" as="targetPoint" />
            <Array as="points" />
          </mxGeometry>
        </mxCell>
        <mxCell id="NgShOfkUOKKtUbSQ_IBs-13" value="Atividade7:&lt;div&gt;&lt;b&gt;Realização da palestra Explicativa&lt;/b&gt;&lt;/div&gt;&lt;div&gt;Duração:1 dia&lt;/div&gt;" style="rounded=0;whiteSpace=wrap;html=1;" parent="1" vertex="1">
          <mxGeometry x="880" y="410" width="120" height="80" as="geometry" />
        </mxCell>
        <mxCell id="NgShOfkUOKKtUbSQ_IBs-15" value="" style="endArrow=classic;html=1;rounded=0;entryX=0.05;entryY=0.613;entryDx=0;entryDy=0;entryPerimeter=0;" parent="1" source="NgShOfkUOKKtUbSQ_IBs-14" target="NgShOfkUOKKtUbSQ_IBs-4" edge="1">
          <mxGeometry width="50" height="50" relative="1" as="geometry">
            <mxPoint x="680" y="360" as="sourcePoint" />
            <mxPoint x="930" y="340" as="targetPoint" />
            <Array as="points">
              <mxPoint x="900" y="340" />
            </Array>
          </mxGeometry>
        </mxCell>
        <mxCell id="NgShOfkUOKKtUbSQ_IBs-17" value="" style="endArrow=classic;html=1;rounded=0;entryX=0.5;entryY=0;entryDx=0;entryDy=0;exitX=0.5;exitY=1;exitDx=0;exitDy=0;" parent="1" source="W11AmwyBGAstD6py_ySH-3" target="NgShOfkUOKKtUbSQ_IBs-19" edge="1">
          <mxGeometry width="50" height="50" relative="1" as="geometry">
            <mxPoint x="740" y="280" as="sourcePoint" />
            <mxPoint x="928" y="342" as="targetPoint" />
            <Array as="points">
              <mxPoint x="740" y="350" />
            </Array>
          </mxGeometry>
        </mxCell>
        <mxCell id="NgShOfkUOKKtUbSQ_IBs-14" value="Atividade8:&lt;div&gt;&lt;strong&gt;Avaliação do Relatório Final&lt;/strong&gt;&amp;nbsp;&lt;/div&gt;&lt;div&gt;Duração:20 dias&lt;br&gt;&lt;/div&gt;" style="rounded=0;whiteSpace=wrap;html=1;" parent="1" vertex="1">
          <mxGeometry x="870" y="290" width="120" height="60" as="geometry" />
        </mxCell>
        <mxCell id="NgShOfkUOKKtUbSQ_IBs-19" value="Atividade6:&lt;div&gt;&lt;b&gt;Divulgação da palestra&lt;/b&gt;&lt;/div&gt;&lt;div&gt;Duração:7 dias&lt;br&gt;&lt;div&gt;&lt;br&gt;&lt;/div&gt;&lt;/div&gt;" style="rounded=0;whiteSpace=wrap;html=1;" parent="1" vertex="1">
          <mxGeometry x="680" y="410" width="120" height="80" as="geometry" />
        </mxCell>
        <mxCell id="W11AmwyBGAstD6py_ySH-3" value="Atividade5:&lt;div&gt;&lt;b&gt;Reajustes no site&lt;/b&gt;&lt;/div&gt;&lt;div&gt;Duração:2 dias&lt;/div&gt;" style="rounded=0;whiteSpace=wrap;html=1;" parent="1" vertex="1">
          <mxGeometry x="680" y="210" width="120" height="60" as="geometry" />
        </mxCell>
        <mxCell id="W11AmwyBGAstD6py_ySH-4" value="" style="endArrow=classic;html=1;rounded=0;entryX=0;entryY=0.5;entryDx=0;entryDy=0;" parent="1" target="W11AmwyBGAstD6py_ySH-3" edge="1">
          <mxGeometry width="50" height="50" relative="1" as="geometry">
            <mxPoint x="590" y="240" as="sourcePoint" />
            <mxPoint x="640" y="190" as="targetPoint" />
          </mxGeometry>
        </mxCell>
        <mxCell id="W11AmwyBGAstD6py_ySH-5" value="" style="endArrow=classic;html=1;rounded=0;entryX=0.5;entryY=1;entryDx=0;entryDy=0;exitX=0.417;exitY=0;exitDx=0;exitDy=0;exitPerimeter=0;" parent="1" source="NgShOfkUOKKtUbSQ_IBs-13" target="NgShOfkUOKKtUbSQ_IBs-14" edge="1">
          <mxGeometry width="50" height="50" relative="1" as="geometry">
            <mxPoint x="900" y="430" as="sourcePoint" />
            <mxPoint x="897" y="375" as="targetPoint" />
            <Array as="points" />
          </mxGeometry>
        </mxCell>
        <mxCell id="W11AmwyBGAstD6py_ySH-6" value="" style="endArrow=classic;html=1;rounded=0;entryX=0;entryY=0.5;entryDx=0;entryDy=0;exitX=1;exitY=0.5;exitDx=0;exitDy=0;" parent="1" source="NgShOfkUOKKtUbSQ_IBs-19" target="NgShOfkUOKKtUbSQ_IBs-13" edge="1">
          <mxGeometry width="50" height="50" relative="1" as="geometry">
            <mxPoint x="650" y="450" as="sourcePoint" />
            <mxPoint x="670" y="400" as="targetPoint" />
            <Array as="points" />
          </mxGeometry>
        </mxCell>
        <mxCell id="W11AmwyBGAstD6py_ySH-7" value="" style="endArrow=classic;html=1;rounded=0;exitX=1;exitY=0.5;exitDx=0;exitDy=0;entryX=0;entryY=0.5;entryDx=0;entryDy=0;" parent="1" source="NgShOfkUOKKtUbSQ_IBs-6" target="NgShOfkUOKKtUbSQ_IBs-19" edge="1">
          <mxGeometry width="50" height="50" relative="1" as="geometry">
            <mxPoint x="620" y="450" as="sourcePoint" />
            <mxPoint x="670" y="400" as="targetPoint" />
            <Array as="points">
              <mxPoint x="630" y="450" />
            </Array>
          </mxGeometry>
        </mxCell>
      </root>
    </mxGraphModel>
  </diagram>
</mxfile>
